<?xml version="1.0" standalone="no"?><!DOCTYPE svg PUBLIC "-//W3C//DTD SVG 1.1//EN" "http://www.w3.org/Graphics/SVG/1.1/DTD/svg11.dtd"><svg t="1699181407123" class="icon" viewBox="0 0 1024 1024" version="1.1" xmlns="http://www.w3.org/2000/svg" p-id="5332" xmlns:xlink="http://www.w3.org/1999/xlink" width="64" height="64"><path d="M754.6 751.6H333.3c-49.5 0-90-40.5-90-90V311.4c0-49.5 40.5-90 90-90h421.2c49.5 0 90 40.5 90 90v350.1c0.1 49.6-40.4 90.1-89.9 90.1z" fill="#285399" p-id="5333"></path><path d="M641 751.6H333.3c-49.5 0-90-40.5-90-90V311.4c0-49.5 40.5-90 90-90H641c49.5 0 90 40.5 90 90v350.1c0 49.6-40.5 90.1-90 90.1z" fill="#3268CF" p-id="5334"></path><path d="M302.3 357.4c-7.5 0-14-5.6-14.9-13.3 0-0.4-0.1-0.8-0.1-1.2-0.8-8.2 5.3-15.6 13.5-16.4 8.3-0.8 15.6 5.3 16.4 13.5 0 0.2 0 0.4 0.1 0.6 1 8.2-4.9 15.7-13.2 16.6-0.7 0.2-1.2 0.2-1.8 0.2zM310.7 311.4c-2.6 0-5.2-0.7-7.5-2-7.2-4.2-9.6-13.3-5.4-20.5 12.2-21 32.4-33.5 33.3-34 7.1-4.3 16.3-2.1 20.6 5 4.3 7.1 2.1 16.3-4.9 20.6-0.4 0.2-14.8 9.3-23 23.5-2.9 4.7-7.9 7.4-13.1 7.4z" fill="#FFFFFF" p-id="5335"></path><path d="M373.3 482.7L223.4 703.5l-43.6 56.8h396.7z" fill="#FFFFFF" p-id="5336"></path><path d="M576.5 775.3H179.8c-5.7 0-10.9-3.2-13.5-8.4-2.5-5.1-1.9-11.2 1.5-15.8l43.3-56.5 149.7-220.5c2.7-4 7.3-6.5 12.1-6.6 4.8-0.1 9.5 2.2 12.4 6.1l203.2 277.7c3.3 4.6 3.8 10.6 1.3 15.6-2.5 5.2-7.7 8.4-13.3 8.4z m-366.3-30h336.7L373.8 508.7l-138 203.2c-0.2 0.2-0.3 0.5-0.5 0.7l-25.1 32.7z" fill="#FFFFFF" p-id="5337"></path><path d="M614.8 554.7L506.9 698.8l-31.3 37h285.3z" fill="#FFFFFF" p-id="5338"></path><path d="M760.9 750.8H475.6c-5.8 0-11.1-3.4-13.6-8.7-2.5-5.3-1.6-11.5 2.1-16l31-36.8 107.6-143.7c2.8-3.7 7.1-5.9 11.7-6 4.6-0.1 9 2 11.9 5.6l146.1 181.2c3.6 4.5 4.3 10.7 1.9 15.9-2.4 5.2-7.6 8.5-13.4 8.5z m-253-30h221.6L615.2 579.1l-96.3 128.6c-0.2 0.2-0.4 0.5-0.5 0.7l-10.5 12.4z" fill="#FFFFFF" p-id="5339"></path><path d="M628.5 360.7a23.5 25.9 0 1 0 47 0 23.5 25.9 0 1 0-47 0Z" fill="#FFFFFF" p-id="5340"></path><path d="M652 401.6c-21.2 0-38.5-18.4-38.5-40.9 0-22.6 17.3-40.9 38.5-40.9s38.5 18.4 38.5 40.9c0 22.6-17.3 40.9-38.5 40.9z m0-51.8c-4.6 0-8.5 5-8.5 10.9s3.9 10.9 8.5 10.9 8.5-5 8.5-10.9-3.9-10.9-8.5-10.9z" fill="#FFFFFF" p-id="5341"></path><path d="M713.5 766.6H264.6c-51.4 0-93.3-45.5-93.3-101.4V408.7c0-8.3 6.7-15 15-15s15 6.7 15 15v256.4c0 39.4 28.4 71.4 63.3 71.4h448.8c34.9 0 63.3-32 63.3-71.4v-58.6c0-8.3 6.7-15 15-15s15 6.7 15 15v58.6c0.1 56-41.8 101.5-93.2 101.5zM792.9 569.7c-8.3 0-15-6.7-15-15v-84.5c0-8.3 6.7-15 15-15s15 6.7 15 15v84.5c0 8.3-6.7 15-15 15zM792.9 435.2c-8.3 0-15-6.7-15-15V307.9c0-39.4-28.4-71.4-63.3-71.4H265.8c-34.9 0-63.3 32-63.3 71.4v25.9c0 8.3-6.7 15-15 15s-15-6.7-15-15v-25.9c0-55.9 41.8-101.4 93.3-101.4h448.8c51.4 0 93.3 45.5 93.3 101.4v112.4c0 8.2-6.7 14.9-15 14.9zM992.7 869.5h-20.4c-8.3 0-15-6.7-15-15s6.7-15 15-15h20.4c8.3 0 15 6.7 15 15s-6.7 15-15 15zM922.7 869.5H489.5c-8.3 0-15-6.7-15-15s6.7-15 15-15h433.2c8.3 0 15 6.7 15 15s-6.7 15-15 15z" fill="#1A1A1A" p-id="5342"></path><path d="M521.1 869.5H258.7c-8.3 0-15-6.7-15-15s6.7-15 15-15h262.4c8.3 0 15 6.7 15 15s-6.7 15-15 15zM159.6 869.5H42c-8.3 0-15-6.7-15-15s6.7-15 15-15h117.7c8.3 0 15 6.7 15 15s-6.8 15-15.1 15z" fill="#1A1A1A" p-id="5343"></path><path d="M49.1 299.2c-0.8 0-1.5-0.7-1.5-1.5V259c0-0.8 0.7-1.5 1.5-1.5s1.5 0.7 1.5 1.5v38.7c0 0.8-0.7 1.5-1.5 1.5z" fill="#F74E00" p-id="5344"></path><path d="M37.1 293.8c-0.4 0-0.7-0.1-1-0.4-0.6-0.6-0.7-1.5-0.1-2.1l25.1-27.4c0.6-0.6 1.5-0.7 2.1-0.1 0.6 0.6 0.7 1.5 0.1 2.1l-25.1 27.4c-0.3 0.3-0.7 0.5-1.1 0.5z" fill="#F74E00" p-id="5345"></path><path d="M62.3 293.5c-0.4 0-0.8-0.2-1.1-0.5L36 265.6c-0.6-0.6-0.5-1.6 0.1-2.1 0.6-0.6 1.6-0.5 2.1 0.1L63.4 291c0.6 0.6 0.5 1.6-0.1 2.1-0.3 0.3-0.7 0.4-1 0.4z" fill="#F74E00" p-id="5346"></path><path d="M66.9 279.8H31.3c-0.8 0-1.5-0.7-1.5-1.5s0.7-1.5 1.5-1.5h35.6c0.8 0 1.5 0.7 1.5 1.5s-0.7 1.5-1.5 1.5z" fill="#F74E00" p-id="5347"></path><path d="M115.4 461H108c-1.4 0-2.5-1.1-2.5-2.5s1.1-2.5 2.5-2.5h7.4c1.4 0 2.5 1.1 2.5 2.5s-1.1 2.5-2.5 2.5zM91.6 461h-7.4c-1.4 0-2.5-1.1-2.5-2.5s1.1-2.5 2.5-2.5h7.4c1.4 0 2.5 1.1 2.5 2.5S93 461 91.6 461zM93.9 454.9c-0.7 0-1.3-0.3-1.8-0.8l-5.3-5.7c-0.9-1-0.9-2.6 0.2-3.5 1-0.9 2.6-0.9 3.5 0.2l5.3 5.7c0.9 1 0.9 2.6-0.2 3.5-0.5 0.3-1.1 0.6-1.7 0.6zM111.9 473.2c-0.7 0-1.3-0.3-1.8-0.8l-5.3-5.7c-0.9-1-0.9-2.6 0.2-3.5 1-0.9 2.6-0.9 3.5 0.2l5.3 5.7c0.9 1 0.9 2.6-0.2 3.5-0.5 0.4-1.1 0.6-1.7 0.6zM106.7 454.3c-0.6 0-1.2-0.2-1.7-0.7-1-0.9-1.1-2.5-0.2-3.5l5.3-5.7c0.9-1 2.5-1.1 3.5-0.2 1 0.9 1.1 2.5 0.2 3.5l-5.3 5.7c-0.5 0.6-1.2 0.9-1.8 0.9zM100 454.1c-1.4 0-2.5-1.1-2.5-2.5v-8.1c0-1.4 1.1-2.5 2.5-2.5s2.5 1.1 2.5 2.5v8.1c0 1.4-1.1 2.5-2.5 2.5zM100 477.2c-1.4 0-2.5-1.1-2.5-2.5v-8.1c0-1.4 1.1-2.5 2.5-2.5s2.5 1.1 2.5 2.5v8.1c0 1.4-1.1 2.5-2.5 2.5zM88.8 473.1c-0.6 0-1.2-0.2-1.7-0.7-1-0.9-1.1-2.5-0.2-3.5l5.3-5.7c0.9-1 2.5-1.1 3.5-0.2 1 0.9 1.1 2.5 0.2 3.5l-5.3 5.7c-0.4 0.6-1.1 0.9-1.8 0.9z" fill="#42DA56" p-id="5348"></path><path d="M127 259.5h-4.2c-3.1 0-5.7-2.5-5.7-5.7v-1c0-3.1 2.5-5.7 5.7-5.7h4.2c3.1 0 5.7 2.5 5.7 5.7v1c-0.1 3.2-2.6 5.7-5.7 5.7z" fill="#3268CF" p-id="5349"></path><path d="M85.4 581.5c-2.5 0-4.5-2-4.5-4.5v-0.8c0-2.5 2-4.5 4.5-4.5s4.5 2 4.5 4.5v0.8c0 2.5-2 4.5-4.5 4.5z" fill="#F74E00" p-id="5350"></path><path d="M51.9 389.5c-7.3 0-13.2-6-13.2-13.2v-2.4c0-7.3 6-13.2 13.2-13.2 7.3 0 13.2 6 13.2 13.2v2.4c0.1 7.2-5.9 13.2-13.2 13.2z" fill="#42DA56" p-id="5351"></path><path d="M970.4 435.3h-6.2c-5.4 0-9.8-4.4-9.8-9.8v-1.3c0-5.4 4.4-9.8 9.8-9.8h6.2c5.4 0 9.8 4.4 9.8 9.8v1.3c0 5.4-4.4 9.8-9.8 9.8z m-6.2-15.9c-2.6 0-4.8 2.2-4.8 4.8v1.3c0 2.6 2.2 4.8 4.8 4.8h6.2c2.6 0 4.8-2.2 4.8-4.8v-1.3c0-2.6-2.2-4.8-4.8-4.8h-6.2z" fill="#42DA56" p-id="5352"></path><path d="M920.7 365.4c-0.8 0-1.5-0.7-1.5-1.5v-23.4c0-0.8 0.7-1.5 1.5-1.5s1.5 0.7 1.5 1.5v23.4c0 0.8-0.7 1.5-1.5 1.5z" fill="#0000FF" p-id="5353"></path><path d="M913.4 362.2c-0.4 0-0.7-0.1-1-0.4-0.6-0.6-0.7-1.5-0.1-2.1l15.2-16.6c0.6-0.6 1.5-0.7 2.1-0.1 0.6 0.6 0.7 1.5 0.1 2.1l-15.2 16.6c-0.3 0.3-0.7 0.5-1.1 0.5z" fill="#0000FF" p-id="5354"></path><path d="M928.7 362c-0.4 0-0.8-0.2-1.1-0.5l-15.2-16.6c-0.6-0.6-0.5-1.6 0.1-2.1 0.6-0.6 1.6-0.5 2.1 0.1l15.2 16.6c0.6 0.6 0.5 1.6-0.1 2.1-0.3 0.3-0.7 0.4-1 0.4z" fill="#0000FF" p-id="5355"></path><path d="M931.5 353.7H910c-0.8 0-1.5-0.7-1.5-1.5s0.7-1.5 1.5-1.5h21.5c0.8 0 1.5 0.7 1.5 1.5s-0.7 1.5-1.5 1.5z" fill="#0000FF" p-id="5356"></path><path d="M972.9 521.7h-7.4c-1.4 0-2.5-1.1-2.5-2.5s1.1-2.5 2.5-2.5h7.4c1.4 0 2.5 1.1 2.5 2.5s-1.1 2.5-2.5 2.5zM949.1 521.7h-7.4c-1.4 0-2.5-1.1-2.5-2.5s1.1-2.5 2.5-2.5h7.4c1.4 0 2.5 1.1 2.5 2.5s-1.1 2.5-2.5 2.5zM951.4 515.5c-0.7 0-1.3-0.3-1.8-0.8l-5.3-5.7c-0.9-1-0.9-2.6 0.2-3.5 1-0.9 2.6-0.9 3.5 0.2l5.3 5.7c0.9 1 0.9 2.6-0.2 3.5-0.5 0.4-1.1 0.6-1.7 0.6zM969.4 533.9c-0.7 0-1.3-0.3-1.8-0.8l-5.3-5.7c-0.9-1-0.9-2.6 0.2-3.5s2.6-0.9 3.5 0.2l5.3 5.7c0.9 1 0.9 2.6-0.2 3.5-0.5 0.4-1.1 0.6-1.7 0.6zM964.2 515c-0.6 0-1.2-0.2-1.7-0.7-1-0.9-1.1-2.5-0.2-3.5l5.3-5.7c0.9-1 2.5-1.1 3.5-0.2 1 0.9 1.1 2.5 0.2 3.5l-5.3 5.7c-0.5 0.6-1.1 0.9-1.8 0.9zM957.5 514.7c-1.4 0-2.5-1.1-2.5-2.5v-8.1c0-1.4 1.1-2.5 2.5-2.5s2.5 1.1 2.5 2.5v8.1c0 1.4-1.1 2.5-2.5 2.5zM957.5 537.9c-1.4 0-2.5-1.1-2.5-2.5v-8.1c0-1.4 1.1-2.5 2.5-2.5s2.5 1.1 2.5 2.5v8.1c0 1.3-1.1 2.5-2.5 2.5zM946.3 533.8c-0.6 0-1.2-0.2-1.7-0.7-1-0.9-1.1-2.5-0.2-3.5l5.3-5.7c0.9-1 2.5-1.1 3.5-0.2 1 0.9 1.1 2.5 0.2 3.5l-5.3 5.7c-0.4 0.6-1.1 0.9-1.8 0.9z" fill="#F74E00" p-id="5357"></path><path d="M909.3 603.5H905c-1.2 0-2.1-1-2.1-2.1v-0.4c0-1.2 1-2.1 2.1-2.1h4.3c1.2 0 2.1 1 2.1 2.1v0.4c0.1 1.1-0.9 2.1-2.1 2.1z" fill="#3268CF" p-id="5358"></path><path d="M910.6 488.2h-9.3c-4 0-7.2-3.2-7.2-7.2v-0.8c0-4 3.2-7.2 7.2-7.2h9.3c4 0 7.2 3.2 7.2 7.2v0.8c-0.1 4-3.3 7.2-7.2 7.2z m-9.4-10.2c-1.2 0-2.2 1-2.2 2.2v0.8c0 1.2 1 2.2 2.2 2.2h9.3c1.2 0 2.2-1 2.2-2.2v-0.8c0-1.2-1-2.2-2.2-2.2h-9.3z" fill="#F74E00" p-id="5359"></path><path d="M899 275.8a5.7 6.3 0 1 0 11.4 0 5.7 6.3 0 1 0-11.4 0Z" fill="#3268CF" p-id="5360"></path></svg>